# xmcd
#
# Track frame offsets: 
#        150
#        8533
#        24563
#        45093
#        63318
#        81548
#        96023
#
# Disc length: 1556 seconds
#
# Revision: 0
# Processed by: cddbd v1.5.2PL0 Copyright (c) Steve Scherf et al.
# Submitted via: ExactAudioCopy v0.99pb4
#
DISCID=45061207
DTITLE=더 지니 - Entrance on the Stage
DYEAR=2010
DGENRE=Ballad
TTITLE0=Await (Piano Intro)
TTITLE1=파이팅 (Fighting)
TTITLE2=사랑은 그렇게
TTITLE3=언제나 니곁에 (광운 ver.)
TTITLE4=언제나 니곁에 (용한 ver.)
TTITLE5=Entrance
TTITLE6=사랑은 그렇게 (Inst.)
EXTD=
EXTT0=
EXTT1=
EXTT2=
EXTT3=
EXTT4=
EXTT5=
EXTT6=
PLAYORDER=
